<svg version="1" xmlns="http://www.w3.org/2000/svg" width="682.667" height="682.667" viewBox="0 0 512.000000 512.000000"><path d="M168.2 54.1c-19.6 5-32.1 18.4-37.1 39.9-1.4 6.2-1.8 11.1-1.6 21.7.4 15.6.5 17.3 4.5 42.3 2.4 15 3.5 44.9 2 53.8-2.8 16.2-12.6 26-31.1 31.1-3.9 1.1-7.3 2.2-7.5 2.4-.8.7-.6 18.9.2 19.6.5.4 3.2 1.3 5.9 1.9 14.3 3.1 23.4 9.1 28 18.6 4.7 9.6 5.5 15.3 5.1 35.6-.2 10.2-.7 19.6-.9 21-.3 1.4-.8 4.3-1.2 6.5-.3 2.2-.7 5.3-1 7-3 19.2-3.6 25.4-4 38.6-.6 21.9 4 37.5 14.4 49.2 9.8 10.8 21.1 15.5 39.4 16.4l11.7.6V436h-3.7c-12.1-.1-19.4-.9-23.5-2.7-4.6-2.1-10.8-7.8-10.8-10.1 0-.7-.4-2-1-3-1.8-3.4-2.7-10.9-2.5-23.2.2-11.4 1.3-25.7 2-27 .2-.3.6-2.6 1-5 .3-2.5 1-7.2 1.5-10.5 1.5-10.2 2.2-15.8 2.6-20.5.4-6.7.4-27.1 0-30.2-2.4-17.1-7.8-30.1-16.5-40-2.2-2.5-3.8-4.8-3.6-5.2.3-.3.2-.4-.2-.1-.3.3-1.6-.4-2.8-1.5l-2.1-1.9 6.8-7.1c8.6-8.9 14.1-19.9 17-33.7 1.7-8.4 1.9-12.2 1.5-27.3-.3-9.6-.8-19.1-1.2-21-.3-1.9-1-6.7-1.6-10.5-.6-3.9-1.3-8.4-1.6-10-3.1-18.6-3.7-42-1.3-51.9 1.1-4.5 2.4-7 5.5-10.2 5-5.2 8.9-6.4 23-7.1 6.1-.3 11.1-.6 11.2-.7.2-.2.5-10.5.4-17.4l-.1-6.3-9.8.2c-5.6.1-12.8.9-17 2zM316.9 56.7c-.1 5.5.2 18.7.4 18.9.1.1 5.2.4 11.2.7 25.3 1.2 30.7 8.5 30 40.2-.2 6.6-.6 13.3-.8 15-.3 1.6-.9 5.2-1.2 8-.9 6.6-1.2 8.4-1.9 12-2.5 14.5-3.5 25.5-3.6 41.5 0 13.3.3 15.8 2.9 26.2 3.2 12.5 11.1 25.8 19.1 32.3l3.7 3-6.2 6.7c-7.1 7.5-12.3 16.3-15.4 25.6-3.1 9.7-3.6 13.4-3.6 31.2 0 17.7.7 27.3 3.1 41.5.8 4.9 1.7 10.1 1.9 11.5 2.7 15.8 2.6 42.3-.2 49.7-3.8 10.3-11.2 14.3-27.7 15.1-6.1.2-11.2.6-11.4.7-.2.2-.4 13.6-.3 20.4l.1 3.3 11.8-.5c16.6-.8 26.3-4.3 35.8-13 2.9-2.6 6.6-7 8.4-9.7 3.8-5.9 7.9-17.4 8.8-24.4.9-6.7.8-25.3-.1-34.1-.7-6.7-2.6-19.4-4.2-28.5-2-11.2-2.9-45.9-1.3-52 2.1-8.7 3.2-11.3 6.1-15.6 4.6-6.9 10.5-11 20.3-14 4.7-1.5 8.7-2.4 9.1-2.1.3.3 1.2 0 1.9-.8 1-1 1.4-4.1 1.4-10.9v-9.5l-4.2-1.1c-21.3-5.5-29.8-12.9-34.2-29.5-1.2-4.6-1.4-10.1-1.1-25.4.2-10.8.6-20.6.8-21.7.3-1.2.8-3.9 1.1-6 .4-2.2 1.1-6.6 1.6-9.9.5-3.3 1.2-7.8 1.5-10 .3-2.2.8-5.7 1.1-7.9.4-2.1.8-9.7.9-16.8.5-23.1-4.5-39-15.8-50-10.3-10.1-22.1-14.3-41.2-14.7l-8.5-.2-.1 4.8z"/></svg>